<?xml version="1.0" encoding="us-ascii" standalone="no"?><svg xmlns="http://www.w3.org/2000/svg" xmlns:xlink="http://www.w3.org/1999/xlink" contentStyleType="text/css" height="1377px" preserveAspectRatio="none" style="width:1853px;height:1377px;background:#FFFFFF;" version="1.1" viewBox="0 0 1853 1377" width="1853px" zoomAndPan="magnify"><defs/><g><!--cluster Observer Pattern--><g id="cluster_Observer Pattern"><path d="M8.5,513.5 L146.5,513.5 A3.75,3.75 0 0 1 149,516 L156,535.7969 L620.5,535.7969 A2.5,2.5 0 0 1 623,538.2969 L623,922.5 A2.5,2.5 0 0 1 620.5,925 L8.5,925 A2.5,2.5 0 0 1 6,922.5 L6,516 A2.5,2.5 0 0 1 8.5,513.5 " fill="#D3D3D3" style="stroke:#000000;stroke-width:1.5;"/><line style="stroke:#000000;stroke-width:1.5;" x1="6" x2="156" y1="535.7969" y2="535.7969"/><text fill="#000000" font-family="sans-serif" font-size="14" font-weight="bold" lengthAdjust="spacing" textLength="137" x="10" y="528.4951">Observer Pattern</text></g><!--cluster Factory Pattern--><g id="cluster_Factory Pattern"><path d="M1068.5,513.5 L1191.5,513.5 A3.75,3.75 0 0 1 1194,516 L1201,535.7969 L1385.5,535.7969 A2.5,2.5 0 0 1 1388,538.2969 L1388,659 A2.5,2.5 0 0 1 1385.5,661.5 L1068.5,661.5 A2.5,2.5 0 0 1 1066,659 L1066,516 A2.5,2.5 0 0 1 1068.5,513.5 " fill="#D3D3D3" style="stroke:#000000;stroke-width:1.5;"/><line style="stroke:#000000;stroke-width:1.5;" x1="1066" x2="1201" y1="535.7969" y2="535.7969"/><text fill="#000000" font-family="sans-serif" font-size="14" font-weight="bold" lengthAdjust="spacing" textLength="122" x="1070" y="528.4951">Factory Pattern</text></g><!--cluster Prototype Pattern--><g id="cluster_Prototype Pattern"><path d="M649.5,530 L791.5,530 A3.75,3.75 0 0 1 794,532.5 L801,552.2969 L1039.5,552.2969 A2.5,2.5 0 0 1 1042,554.7969 L1042,1367.5 A2.5,2.5 0 0 1 1039.5,1370 L649.5,1370 A2.5,2.5 0 0 1 647,1367.5 L647,532.5 A2.5,2.5 0 0 1 649.5,530 " fill="#D3D3D3" style="stroke:#000000;stroke-width:1.5;"/><line style="stroke:#000000;stroke-width:1.5;" x1="647" x2="801" y1="552.2969" y2="552.2969"/><text fill="#000000" font-family="sans-serif" font-size="14" font-weight="bold" lengthAdjust="spacing" textLength="141" x="651" y="544.9951">Prototype Pattern</text></g><!--cluster Memento Pattern--><g id="cluster_Memento Pattern"><path d="M1426.5,266 L1563.5,266 A3.75,3.75 0 0 1 1566,268.5 L1573,288.2969 L1843.5,288.2969 A2.5,2.5 0 0 1 1846,290.7969 L1846,914.5 A2.5,2.5 0 0 1 1843.5,917 L1426.5,917 A2.5,2.5 0 0 1 1424,914.5 L1424,268.5 A2.5,2.5 0 0 1 1426.5,266 " fill="#D3D3D3" style="stroke:#000000;stroke-width:1.5;"/><line style="stroke:#000000;stroke-width:1.5;" x1="1424" x2="1573" y1="288.2969" y2="288.2969"/><text fill="#000000" font-family="sans-serif" font-size="14" font-weight="bold" lengthAdjust="spacing" textLength="136" x="1428" y="280.9951">Memento Pattern</text></g><!--cluster Core Simulation--><g id="cluster_Core Simulation"><path d="M1056.5,6 L1181.5,6 A3.75,3.75 0 0 1 1184,8.5 L1191,28.2969 L1397.5,28.2969 A2.5,2.5 0 0 1 1400,30.7969 L1400,468.5 A2.5,2.5 0 0 1 1397.5,471 L1056.5,471 A2.5,2.5 0 0 1 1054,468.5 L1054,8.5 A2.5,2.5 0 0 1 1056.5,6 " fill="#D3D3D3" style="stroke:#000000;stroke-width:1.5;"/><line style="stroke:#000000;stroke-width:1.5;" x1="1054" x2="1191" y1="28.2969" y2="28.2969"/><text fill="#000000" font-family="sans-serif" font-size="14" font-weight="bold" lengthAdjust="spacing" textLength="124" x="1058" y="20.9951">Core Simulation</text></g><!--class Publisher--><g id="elem_Publisher"><rect codeLine="12" fill="#FFFFFF" height="96.8906" id="Publisher" rx="2.5" ry="2.5" style="stroke:#000000;stroke-width:0.5;" width="319" x="287.5" y="548.5"/><ellipse cx="411.75" cy="564.5" fill="#B4A7E5" rx="11" ry="11" style="stroke:#181818;stroke-width:1.0;"/><path d="M407.6719,560.2656 L407.6719,558.1094 L415.0625,558.1094 L415.0625,560.2656 L412.5938,560.2656 L412.5938,568.3438 L415.0625,568.3438 L415.0625,570.5 L407.6719,570.5 L407.6719,568.3438 L410.1406,568.3438 L410.1406,560.2656 L407.6719,560.2656 Z " fill="#000000"/><text fill="#000000" font-family="sans-serif" font-size="14" font-style="italic" lengthAdjust="spacing" textLength="62" x="432.25" y="569.3467">Publisher</text><line style="stroke:#000000;stroke-width:0.5;" x1="288.5" x2="605.5" y1="580.5" y2="580.5"/><line style="stroke:#000000;stroke-width:0.5;" x1="288.5" x2="605.5" y1="588.5" y2="588.5"/><ellipse cx="298.5" cy="602.1484" fill="#84BE84" rx="3" ry="3" style="stroke:#038048;stroke-width:1.0;"/><text fill="#000000" font-family="sans-serif" font-size="14" lengthAdjust="spacing" textLength="288" x="307.5" y="605.4951">attach(subscriber: WebSocketSubscriber)</text><ellipse cx="298.5" cy="618.4453" fill="#84BE84" rx="3" ry="3" style="stroke:#038048;stroke-width:1.0;"/><text fill="#000000" font-family="sans-serif" font-size="14" lengthAdjust="spacing" textLength="293" x="307.5" y="621.792">detach(subscriber: WebSocketSubscriber)</text><ellipse cx="298.5" cy="634.7422" fill="#84BE84" rx="3" ry="3" style="stroke:#038048;stroke-width:1.0;"/><text fill="#000000" font-family="sans-serif" font-size="14" lengthAdjust="spacing" textLength="129" x="307.5" y="638.0889">notifySubscribers()</text></g><!--class WebSocketSubscriber--><g id="elem_WebSocketSubscriber"><rect codeLine="18" fill="#FFFFFF" height="64.2969" id="WebSocketSubscriber" rx="2.5" ry="2.5" style="stroke:#000000;stroke-width:0.5;" width="231" x="21.5" y="565"/><ellipse cx="57.2" cy="581" fill="#B4A7E5" rx="11" ry="11" style="stroke:#181818;stroke-width:1.0;"/><path d="M53.1219,576.7656 L53.1219,574.6094 L60.5125,574.6094 L60.5125,576.7656 L58.0438,576.7656 L58.0438,584.8438 L60.5125,584.8438 L60.5125,587 L53.1219,587 L53.1219,584.8438 L55.5906,584.8438 L55.5906,576.7656 L53.1219,576.7656 Z " fill="#000000"/><text fill="#000000" font-family="sans-serif" font-size="14" font-style="italic" lengthAdjust="spacing" textLength="153" x="75.8" y="585.8467">WebSocketSubscriber</text><line style="stroke:#000000;stroke-width:0.5;" x1="22.5" x2="251.5" y1="597" y2="597"/><line style="stroke:#000000;stroke-width:0.5;" x1="22.5" x2="251.5" y1="605" y2="605"/><ellipse cx="32.5" cy="618.6484" fill="#84BE84" rx="3" ry="3" style="stroke:#038048;stroke-width:1.0;"/><text fill="#000000" font-family="sans-serif" font-size="14" lengthAdjust="spacing" textLength="205" x="41.5" y="621.9951">notify(event: SimulationEvent)</text></g><!--class WebSocketService--><g id="elem_WebSocketService"><rect codeLine="22" fill="#FFFFFF" height="113.1875" id="WebSocketService" rx="2.5" ry="2.5" style="stroke:#000000;stroke-width:0.5;" width="386" x="221" y="796"/><ellipse cx="345.25" cy="812" fill="#ADD1B2" rx="11" ry="11" style="stroke:#181818;stroke-width:1.0;"/><path d="M348.2188,817.6406 Q347.6406,817.9375 347,818.0781 Q346.3594,818.2344 345.6563,818.2344 Q343.1563,818.2344 341.8281,816.5938 Q340.5156,814.9375 340.5156,811.8125 Q340.5156,808.6875 341.8281,807.0313 Q343.1563,805.375 345.6563,805.375 Q346.3594,805.375 347,805.5313 Q347.6563,805.6875 348.2188,805.9844 L348.2188,808.7031 Q347.5938,808.125 347,807.8594 Q346.4063,807.5781 345.7813,807.5781 Q344.4375,807.5781 343.75,808.6563 Q343.0625,809.7188 343.0625,811.8125 Q343.0625,813.9063 343.75,814.9844 Q344.4375,816.0469 345.7813,816.0469 Q346.4063,816.0469 347,815.7813 Q347.5938,815.5 348.2188,814.9219 L348.2188,817.6406 Z " fill="#000000"/><text fill="#000000" font-family="sans-serif" font-size="14" lengthAdjust="spacing" textLength="129" x="365.75" y="816.8467">WebSocketService</text><line style="stroke:#000000;stroke-width:0.5;" x1="222" x2="606" y1="828" y2="828"/><rect fill="none" height="6" style="stroke:#C82930;stroke-width:1.0;" width="6" x="229" y="838.6484"/><text fill="#000000" font-family="sans-serif" font-size="14" lengthAdjust="spacing" textLength="292" x="241" y="844.9951">simulationController: WebSocketController</text><rect fill="none" height="6" style="stroke:#C82930;stroke-width:1.0;" width="6" x="229" y="854.9453"/><text fill="#000000" font-family="sans-serif" font-size="14" lengthAdjust="spacing" textLength="360" x="241" y="861.292">messageQueue: BlockingQueue&lt;SimulationEvent&gt;</text><line style="stroke:#000000;stroke-width:0.5;" x1="222" x2="606" y1="868.5938" y2="868.5938"/><ellipse cx="232" cy="882.2422" fill="#84BE84" rx="3" ry="3" style="stroke:#038048;stroke-width:1.0;"/><text fill="#000000" font-family="sans-serif" font-size="14" lengthAdjust="spacing" textLength="205" x="241" y="885.5889">notify(event: SimulationEvent)</text><ellipse cx="232" cy="898.5391" fill="#84BE84" rx="3" ry="3" style="stroke:#038048;stroke-width:1.0;"/><text fill="#000000" font-family="sans-serif" font-size="14" lengthAdjust="spacing" textLength="30" x="241" y="901.8857">init()</text></g><!--class Factory--><g id="elem_Factory"><rect codeLine="31" fill="#FFFFFF" height="96.8906" id="Factory" rx="2.5" ry="2.5" style="stroke:#000000;stroke-width:0.5;" width="291" x="1081.5" y="548.5"/><ellipse cx="1197.75" cy="564.5" fill="#ADD1B2" rx="11" ry="11" style="stroke:#181818;stroke-width:1.0;"/><path d="M1200.7188,570.1406 Q1200.1406,570.4375 1199.5,570.5781 Q1198.8594,570.7344 1198.1563,570.7344 Q1195.6563,570.7344 1194.3281,569.0938 Q1193.0156,567.4375 1193.0156,564.3125 Q1193.0156,561.1875 1194.3281,559.5313 Q1195.6563,557.875 1198.1563,557.875 Q1198.8594,557.875 1199.5,558.0313 Q1200.1563,558.1875 1200.7188,558.4844 L1200.7188,561.2031 Q1200.0938,560.625 1199.5,560.3594 Q1198.9063,560.0781 1198.2813,560.0781 Q1196.9375,560.0781 1196.25,561.1563 Q1195.5625,562.2188 1195.5625,564.3125 Q1195.5625,566.4063 1196.25,567.4844 Q1196.9375,568.5469 1198.2813,568.5469 Q1198.9063,568.5469 1199.5,568.2813 Q1200.0938,568 1200.7188,567.4219 L1200.7188,570.1406 Z " fill="#000000"/><text fill="#000000" font-family="sans-serif" font-size="14" lengthAdjust="spacing" textLength="50" x="1218.25" y="569.3467">Factory</text><line style="stroke:#000000;stroke-width:0.5;" x1="1082.5" x2="1371.5" y1="580.5" y2="580.5"/><rect fill="none" height="6" style="stroke:#C82930;stroke-width:1.0;" width="6" x="1089.5" y="591.1484"/><text fill="#000000" font-family="sans-serif" font-size="14" lengthAdjust="spacing" textLength="265" x="1101.5" y="597.4951">webSocketService: WebSocketService</text><line style="stroke:#000000;stroke-width:0.5;" x1="1082.5" x2="1371.5" y1="604.7969" y2="604.7969"/><ellipse cx="1092.5" cy="618.4453" fill="#84BE84" rx="3" ry="3" style="stroke:#038048;stroke-width:1.0;"/><text fill="#000000" font-family="sans-serif" font-size="14" lengthAdjust="spacing" textLength="240" x="1101.5" y="621.792">createMachine(id: String): Machine</text><ellipse cx="1092.5" cy="634.7422" fill="#84BE84" rx="3" ry="3" style="stroke:#038048;stroke-width:1.0;"/><text fill="#000000" font-family="sans-serif" font-size="14" lengthAdjust="spacing" textLength="218" x="1101.5" y="638.0889">createQueue(id: String): Queue</text></g><!--class Cloneable--><g id="elem_Cloneable"><rect codeLine="39" fill="#FFFFFF" height="64.2969" id="Cloneable" rx="2.5" ry="2.5" style="stroke:#000000;stroke-width:0.5;" width="128" x="898" y="565"/><ellipse cx="925.15" cy="581" fill="#B4A7E5" rx="11" ry="11" style="stroke:#181818;stroke-width:1.0;"/><path d="M921.0719,576.7656 L921.0719,574.6094 L928.4625,574.6094 L928.4625,576.7656 L925.9938,576.7656 L925.9938,584.8438 L928.4625,584.8438 L928.4625,587 L921.0719,587 L921.0719,584.8438 L923.5406,584.8438 L923.5406,576.7656 L921.0719,576.7656 Z " fill="#000000"/><text fill="#000000" font-family="sans-serif" font-size="14" font-style="italic" lengthAdjust="spacing" textLength="69" x="941.85" y="585.8467">Cloneable</text><line style="stroke:#000000;stroke-width:0.5;" x1="899" x2="1025" y1="597" y2="597"/><line style="stroke:#000000;stroke-width:0.5;" x1="899" x2="1025" y1="605" y2="605"/><ellipse cx="909" cy="618.6484" fill="#84BE84" rx="3" ry="3" style="stroke:#038048;stroke-width:1.0;"/><text fill="#000000" font-family="sans-serif" font-size="14" lengthAdjust="spacing" textLength="102" x="918" y="621.9951">clone(): Object</text></g><!--class Machine--><g id="elem_Machine"><rect codeLine="43" fill="#FFFFFF" height="210.9688" id="Machine" rx="2.5" ry="2.5" style="stroke:#000000;stroke-width:0.5;" width="245" x="686.5" y="747"/><ellipse cx="775.75" cy="763" fill="#ADD1B2" rx="11" ry="11" style="stroke:#181818;stroke-width:1.0;"/><path d="M778.7188,768.6406 Q778.1406,768.9375 777.5,769.0781 Q776.8594,769.2344 776.1563,769.2344 Q773.6563,769.2344 772.3281,767.5938 Q771.0156,765.9375 771.0156,762.8125 Q771.0156,759.6875 772.3281,758.0313 Q773.6563,756.375 776.1563,756.375 Q776.8594,756.375 777.5,756.5313 Q778.1563,756.6875 778.7188,756.9844 L778.7188,759.7031 Q778.0938,759.125 777.5,758.8594 Q776.9063,758.5781 776.2813,758.5781 Q774.9375,758.5781 774.25,759.6563 Q773.5625,760.7188 773.5625,762.8125 Q773.5625,764.9063 774.25,765.9844 Q774.9375,767.0469 776.2813,767.0469 Q776.9063,767.0469 777.5,766.7813 Q778.0938,766.5 778.7188,765.9219 L778.7188,768.6406 Z " fill="#000000"/><text fill="#000000" font-family="sans-serif" font-size="14" lengthAdjust="spacing" textLength="58" x="796.25" y="767.8467">Machine</text><line style="stroke:#000000;stroke-width:0.5;" x1="687.5" x2="930.5" y1="779" y2="779"/><rect fill="none" height="6" style="stroke:#C82930;stroke-width:1.0;" width="6" x="694.5" y="789.6484"/><text fill="#000000" font-family="sans-serif" font-size="14" lengthAdjust="spacing" textLength="61" x="706.5" y="795.9951">id: String</text><rect fill="none" height="6" style="stroke:#C82930;stroke-width:1.0;" width="6" x="694.5" y="805.9453"/><text fill="#000000" font-family="sans-serif" font-size="14" lengthAdjust="spacing" textLength="193" x="706.5" y="812.292">inputQueues: List&lt;Queue&gt;</text><rect fill="none" height="6" style="stroke:#C82930;stroke-width:1.0;" width="6" x="694.5" y="822.2422"/><text fill="#000000" font-family="sans-serif" font-size="14" lengthAdjust="spacing" textLength="149" x="706.5" y="828.5889">outputQueue: Queue</text><rect fill="none" height="6" style="stroke:#C82930;stroke-width:1.0;" width="6" x="694.5" y="838.5391"/><text fill="#000000" font-family="sans-serif" font-size="14" lengthAdjust="spacing" textLength="167" x="706.5" y="844.8857">currentProduct: Product</text><rect fill="none" height="6" style="stroke:#C82930;stroke-width:1.0;" width="6" x="694.5" y="854.8359"/><text fill="#000000" font-family="sans-serif" font-size="14" lengthAdjust="spacing" textLength="118" x="706.5" y="861.1826">running: boolean</text><line style="stroke:#000000;stroke-width:0.5;" x1="687.5" x2="930.5" y1="868.4844" y2="868.4844"/><ellipse cx="697.5" cy="882.1328" fill="#84BE84" rx="3" ry="3" style="stroke:#038048;stroke-width:1.0;"/><text fill="#000000" font-family="sans-serif" font-size="14" lengthAdjust="spacing" textLength="219" x="706.5" y="885.4795">addInputQueue(queue: Queue)</text><ellipse cx="697.5" cy="898.4297" fill="#84BE84" rx="3" ry="3" style="stroke:#038048;stroke-width:1.0;"/><text fill="#000000" font-family="sans-serif" font-size="14" lengthAdjust="spacing" textLength="33" x="706.5" y="901.7764">run()</text><ellipse cx="697.5" cy="914.7266" fill="#84BE84" rx="3" ry="3" style="stroke:#038048;stroke-width:1.0;"/><text fill="#000000" font-family="sans-serif" font-size="14" lengthAdjust="spacing" textLength="97" x="706.5" y="918.0732">start(boolean)</text><ellipse cx="697.5" cy="931.0234" fill="#84BE84" rx="3" ry="3" style="stroke:#038048;stroke-width:1.0;"/><text fill="#000000" font-family="sans-serif" font-size="14" lengthAdjust="spacing" textLength="41" x="706.5" y="934.3701">stop()</text><ellipse cx="697.5" cy="947.3203" fill="#84BE84" rx="3" ry="3" style="stroke:#038048;stroke-width:1.0;"/><text fill="#000000" font-family="sans-serif" font-size="14" lengthAdjust="spacing" textLength="115" x="706.5" y="950.667">clone(): Machine</text></g><!--class Queue--><g id="elem_Queue"><rect codeLine="56" fill="#FFFFFF" height="129.4844" id="Queue" rx="2.5" ry="2.5" style="stroke:#000000;stroke-width:0.5;" width="326" x="663" y="1035"/><ellipse cx="798.25" cy="1051" fill="#ADD1B2" rx="11" ry="11" style="stroke:#181818;stroke-width:1.0;"/><path d="M801.2188,1056.6406 Q800.6406,1056.9375 800,1057.0781 Q799.3594,1057.2344 798.6563,1057.2344 Q796.1563,1057.2344 794.8281,1055.5938 Q793.5156,1053.9375 793.5156,1050.8125 Q793.5156,1047.6875 794.8281,1046.0313 Q796.1563,1044.375 798.6563,1044.375 Q799.3594,1044.375 800,1044.5313 Q800.6563,1044.6875 801.2188,1044.9844 L801.2188,1047.7031 Q800.5938,1047.125 800,1046.8594 Q799.4063,1046.5781 798.7813,1046.5781 Q797.4375,1046.5781 796.75,1047.6563 Q796.0625,1048.7188 796.0625,1050.8125 Q796.0625,1052.9063 796.75,1053.9844 Q797.4375,1055.0469 798.7813,1055.0469 Q799.4063,1055.0469 800,1054.7813 Q800.5938,1054.5 801.2188,1053.9219 L801.2188,1056.6406 Z " fill="#000000"/><text fill="#000000" font-family="sans-serif" font-size="14" lengthAdjust="spacing" textLength="47" x="818.75" y="1055.8467">Queue</text><line style="stroke:#000000;stroke-width:0.5;" x1="664" x2="988" y1="1067" y2="1067"/><rect fill="none" height="6" style="stroke:#C82930;stroke-width:1.0;" width="6" x="671" y="1077.6484"/><text fill="#000000" font-family="sans-serif" font-size="14" lengthAdjust="spacing" textLength="61" x="683" y="1083.9951">id: String</text><rect fill="none" height="6" style="stroke:#C82930;stroke-width:1.0;" width="6" x="671" y="1093.9453"/><text fill="#000000" font-family="sans-serif" font-size="14" lengthAdjust="spacing" textLength="300" x="683" y="1100.292">products: LinkedBlockingDeque&lt;Product&gt;</text><line style="stroke:#000000;stroke-width:0.5;" x1="664" x2="988" y1="1107.5938" y2="1107.5938"/><ellipse cx="674" cy="1121.2422" fill="#84BE84" rx="3" ry="3" style="stroke:#038048;stroke-width:1.0;"/><text fill="#000000" font-family="sans-serif" font-size="14" lengthAdjust="spacing" textLength="207" x="683" y="1124.5889">addProduct(product: Product)</text><ellipse cx="674" cy="1137.5391" fill="#84BE84" rx="3" ry="3" style="stroke:#038048;stroke-width:1.0;"/><text fill="#000000" font-family="sans-serif" font-size="14" lengthAdjust="spacing" textLength="138" x="683" y="1140.8857">consume(): Product</text><ellipse cx="674" cy="1153.8359" fill="#84BE84" rx="3" ry="3" style="stroke:#038048;stroke-width:1.0;"/><text fill="#000000" font-family="sans-serif" font-size="14" lengthAdjust="spacing" textLength="104" x="683" y="1157.1826">clone(): Queue</text></g><!--class Product--><g id="elem_Product"><rect codeLine="64" fill="#FFFFFF" height="113.1875" id="Product" rx="2.5" ry="2.5" style="stroke:#000000;stroke-width:0.5;" width="193" x="781.5" y="1241"/><ellipse cx="846.75" cy="1257" fill="#ADD1B2" rx="11" ry="11" style="stroke:#181818;stroke-width:1.0;"/><path d="M849.7188,1262.6406 Q849.1406,1262.9375 848.5,1263.0781 Q847.8594,1263.2344 847.1563,1263.2344 Q844.6563,1263.2344 843.3281,1261.5938 Q842.0156,1259.9375 842.0156,1256.8125 Q842.0156,1253.6875 843.3281,1252.0313 Q844.6563,1250.375 847.1563,1250.375 Q847.8594,1250.375 848.5,1250.5313 Q849.1563,1250.6875 849.7188,1250.9844 L849.7188,1253.7031 Q849.0938,1253.125 848.5,1252.8594 Q847.9063,1252.5781 847.2813,1252.5781 Q845.9375,1252.5781 845.25,1253.6563 Q844.5625,1254.7188 844.5625,1256.8125 Q844.5625,1258.9063 845.25,1259.9844 Q845.9375,1261.0469 847.2813,1261.0469 Q847.9063,1261.0469 848.5,1260.7813 Q849.0938,1260.5 849.7188,1259.9219 L849.7188,1262.6406 Z " fill="#000000"/><text fill="#000000" font-family="sans-serif" font-size="14" lengthAdjust="spacing" textLength="54" x="867.25" y="1261.8467">Product</text><line style="stroke:#000000;stroke-width:0.5;" x1="782.5" x2="973.5" y1="1273" y2="1273"/><rect fill="none" height="6" style="stroke:#C82930;stroke-width:1.0;" width="6" x="789.5" y="1283.6484"/><text fill="#000000" font-family="sans-serif" font-size="14" lengthAdjust="spacing" textLength="61" x="801.5" y="1289.9951">id: String</text><rect fill="none" height="6" style="stroke:#C82930;stroke-width:1.0;" width="6" x="789.5" y="1299.9453"/><text fill="#000000" font-family="sans-serif" font-size="14" lengthAdjust="spacing" textLength="83" x="801.5" y="1306.292">color: String</text><line style="stroke:#000000;stroke-width:0.5;" x1="782.5" x2="973.5" y1="1313.5938" y2="1313.5938"/><rect fill="#F24D5C" height="6" style="stroke:#C82930;stroke-width:1.0;" width="6" x="789.5" y="1324.2422"/><text fill="#000000" font-family="sans-serif" font-size="14" lengthAdjust="spacing" textLength="167" x="801.5" y="1330.5889">generateRandomColor()</text><ellipse cx="792.5" cy="1343.5391" fill="#84BE84" rx="3" ry="3" style="stroke:#038048;stroke-width:1.0;"/><text fill="#000000" font-family="sans-serif" font-size="14" lengthAdjust="spacing" textLength="111" x="801.5" y="1346.8857">clone(): Product</text></g><!--class SimulationCaretaker--><g id="elem_SimulationCaretaker"><rect codeLine="73" fill="#FFFFFF" height="145.7813" id="SimulationCaretaker" rx="2.5" ry="2.5" style="stroke:#000000;stroke-width:0.5;" width="390" x="1440" y="524"/><ellipse cx="1561.75" cy="540" fill="#ADD1B2" rx="11" ry="11" style="stroke:#181818;stroke-width:1.0;"/><path d="M1564.7188,545.6406 Q1564.1406,545.9375 1563.5,546.0781 Q1562.8594,546.2344 1562.1563,546.2344 Q1559.6563,546.2344 1558.3281,544.5938 Q1557.0156,542.9375 1557.0156,539.8125 Q1557.0156,536.6875 1558.3281,535.0313 Q1559.6563,533.375 1562.1563,533.375 Q1562.8594,533.375 1563.5,533.5313 Q1564.1563,533.6875 1564.7188,533.9844 L1564.7188,536.7031 Q1564.0938,536.125 1563.5,535.8594 Q1562.9063,535.5781 1562.2813,535.5781 Q1560.9375,535.5781 1560.25,536.6563 Q1559.5625,537.7188 1559.5625,539.8125 Q1559.5625,541.9063 1560.25,542.9844 Q1560.9375,544.0469 1562.2813,544.0469 Q1562.9063,544.0469 1563.5,543.7813 Q1564.0938,543.5 1564.7188,542.9219 L1564.7188,545.6406 Z " fill="#000000"/><text fill="#000000" font-family="sans-serif" font-size="14" lengthAdjust="spacing" textLength="138" x="1582.25" y="544.8467">SimulationCaretaker</text><line style="stroke:#000000;stroke-width:0.5;" x1="1441" x2="1829" y1="556" y2="556"/><rect fill="none" height="6" style="stroke:#C82930;stroke-width:1.0;" width="6" x="1448" y="566.6484"/><text fill="#000000" font-family="sans-serif" font-size="14" lengthAdjust="spacing" textLength="243" x="1460" y="572.9951">startMemento: SimulationMemento</text><rect fill="none" height="6" style="stroke:#C82930;stroke-width:1.0;" width="6" x="1448" y="582.9453"/><text fill="#000000" font-family="sans-serif" font-size="14" lengthAdjust="spacing" textLength="255" x="1460" y="589.292">pauseMemento: SimulationMemento</text><line style="stroke:#000000;stroke-width:0.5;" x1="1441" x2="1829" y1="596.5938" y2="596.5938"/><ellipse cx="1451" cy="610.2422" fill="#84BE84" rx="3" ry="3" style="stroke:#038048;stroke-width:1.0;"/><text fill="#000000" font-family="sans-serif" font-size="14" lengthAdjust="spacing" textLength="353" x="1460" y="613.5889">saveStartMemento(memento: SimulationMemento)</text><ellipse cx="1451" cy="626.5391" fill="#84BE84" rx="3" ry="3" style="stroke:#038048;stroke-width:1.0;"/><text fill="#000000" font-family="sans-serif" font-size="14" lengthAdjust="spacing" textLength="364" x="1460" y="629.8857">savePauseMemento(memento: SimulationMemento)</text><ellipse cx="1451" cy="642.8359" fill="#84BE84" rx="3" ry="3" style="stroke:#038048;stroke-width:1.0;"/><text fill="#000000" font-family="sans-serif" font-size="14" lengthAdjust="spacing" textLength="277" x="1460" y="646.1826">getStartMemento(): SimulationMemento</text><ellipse cx="1451" cy="659.1328" fill="#84BE84" rx="3" ry="3" style="stroke:#038048;stroke-width:1.0;"/><text fill="#000000" font-family="sans-serif" font-size="14" lengthAdjust="spacing" textLength="288" x="1460" y="662.4795">getPauseMemento(): SimulationMemento</text></g><!--class SimulationMemento--><g id="elem_SimulationMemento"><rect codeLine="82" fill="#FFFFFF" height="96.8906" id="SimulationMemento" rx="2.5" ry="2.5" style="stroke:#000000;stroke-width:0.5;" width="257" x="1506.5" y="804"/><ellipse cx="1562.25" cy="820" fill="#ADD1B2" rx="11" ry="11" style="stroke:#181818;stroke-width:1.0;"/><path d="M1565.2188,825.6406 Q1564.6406,825.9375 1564,826.0781 Q1563.3594,826.2344 1562.6563,826.2344 Q1560.1563,826.2344 1558.8281,824.5938 Q1557.5156,822.9375 1557.5156,819.8125 Q1557.5156,816.6875 1558.8281,815.0313 Q1560.1563,813.375 1562.6563,813.375 Q1563.3594,813.375 1564,813.5313 Q1564.6563,813.6875 1565.2188,813.9844 L1565.2188,816.7031 Q1564.5938,816.125 1564,815.8594 Q1563.4063,815.5781 1562.7813,815.5781 Q1561.4375,815.5781 1560.75,816.6563 Q1560.0625,817.7188 1560.0625,819.8125 Q1560.0625,821.9063 1560.75,822.9844 Q1561.4375,824.0469 1562.7813,824.0469 Q1563.4063,824.0469 1564,823.7813 Q1564.5938,823.5 1565.2188,822.9219 L1565.2188,825.6406 Z " fill="#000000"/><text fill="#000000" font-family="sans-serif" font-size="14" lengthAdjust="spacing" textLength="137" x="1582.75" y="824.8467">SimulationMemento</text><line style="stroke:#000000;stroke-width:0.5;" x1="1507.5" x2="1762.5" y1="836" y2="836"/><rect fill="none" height="6" style="stroke:#C82930;stroke-width:1.0;" width="6" x="1514.5" y="846.6484"/><text fill="#000000" font-family="sans-serif" font-size="14" lengthAdjust="spacing" textLength="231" x="1526.5" y="852.9951">machines: Map&lt;String,Machine&gt;</text><rect fill="none" height="6" style="stroke:#C82930;stroke-width:1.0;" width="6" x="1514.5" y="862.9453"/><text fill="#000000" font-family="sans-serif" font-size="14" lengthAdjust="spacing" textLength="206" x="1526.5" y="869.292">queues: Map&lt;String,Queue&gt;</text><rect fill="none" height="6" style="stroke:#C82930;stroke-width:1.0;" width="6" x="1514.5" y="879.2422"/><text fill="#000000" font-family="sans-serif" font-size="14" lengthAdjust="spacing" textLength="88" x="1526.5" y="885.5889">products: int</text><line style="stroke:#000000;stroke-width:0.5;" x1="1507.5" x2="1762.5" y1="892.8906" y2="892.8906"/></g><!--class SimulationStateManager--><g id="elem_SimulationStateManager"><rect codeLine="88" fill="#FFFFFF" height="162.0781" id="SimulationStateManager" rx="2.5" ry="2.5" style="stroke:#000000;stroke-width:0.5;" width="277" x="1468.5" y="301"/><ellipse cx="1519.25" cy="317" fill="#ADD1B2" rx="11" ry="11" style="stroke:#181818;stroke-width:1.0;"/><path d="M1522.2188,322.6406 Q1521.6406,322.9375 1521,323.0781 Q1520.3594,323.2344 1519.6563,323.2344 Q1517.1563,323.2344 1515.8281,321.5938 Q1514.5156,319.9375 1514.5156,316.8125 Q1514.5156,313.6875 1515.8281,312.0313 Q1517.1563,310.375 1519.6563,310.375 Q1520.3594,310.375 1521,310.5313 Q1521.6563,310.6875 1522.2188,310.9844 L1522.2188,313.7031 Q1521.5938,313.125 1521,312.8594 Q1520.4063,312.5781 1519.7813,312.5781 Q1518.4375,312.5781 1517.75,313.6563 Q1517.0625,314.7188 1517.0625,316.8125 Q1517.0625,318.9063 1517.75,319.9844 Q1518.4375,321.0469 1519.7813,321.0469 Q1520.4063,321.0469 1521,320.7813 Q1521.5938,320.5 1522.2188,319.9219 L1522.2188,322.6406 Z " fill="#000000"/><text fill="#000000" font-family="sans-serif" font-size="14" lengthAdjust="spacing" textLength="167" x="1539.75" y="321.8467">SimulationStateManager</text><line style="stroke:#000000;stroke-width:0.5;" x1="1469.5" x2="1744.5" y1="333" y2="333"/><rect fill="none" height="6" style="stroke:#C82930;stroke-width:1.0;" width="6" x="1476.5" y="343.6484"/><text fill="#000000" font-family="sans-serif" font-size="14" lengthAdjust="spacing" textLength="212" x="1488.5" y="349.9951">caretaker: SimulationCaretaker</text><rect fill="none" height="6" style="stroke:#C82930;stroke-width:1.0;" width="6" x="1476.5" y="359.9453"/><text fill="#000000" font-family="sans-serif" font-size="14" lengthAdjust="spacing" textLength="251" x="1488.5" y="366.292">machinesState: MachineStateHolder</text><rect fill="none" height="6" style="stroke:#C82930;stroke-width:1.0;" width="6" x="1476.5" y="376.2422"/><text fill="#000000" font-family="sans-serif" font-size="14" lengthAdjust="spacing" textLength="226" x="1488.5" y="382.5889">queuesState: QueueStateHolder</text><line style="stroke:#000000;stroke-width:0.5;" x1="1469.5" x2="1744.5" y1="389.8906" y2="389.8906"/><ellipse cx="1479.5" cy="403.5391" fill="#84BE84" rx="3" ry="3" style="stroke:#038048;stroke-width:1.0;"/><text fill="#000000" font-family="sans-serif" font-size="14" lengthAdjust="spacing" textLength="112" x="1488.5" y="406.8857">saveInitialState()</text><ellipse cx="1479.5" cy="419.8359" fill="#84BE84" rx="3" ry="3" style="stroke:#038048;stroke-width:1.0;"/><text fill="#000000" font-family="sans-serif" font-size="14" lengthAdjust="spacing" textLength="121" x="1488.5" y="423.1826">savePauseState()</text><ellipse cx="1479.5" cy="436.1328" fill="#84BE84" rx="3" ry="3" style="stroke:#038048;stroke-width:1.0;"/><text fill="#000000" font-family="sans-serif" font-size="14" lengthAdjust="spacing" textLength="250" x="1488.5" y="439.4795">restoreInitialState(products: Integer)</text><ellipse cx="1479.5" cy="452.4297" fill="#84BE84" rx="3" ry="3" style="stroke:#038048;stroke-width:1.0;"/><text fill="#000000" font-family="sans-serif" font-size="14" lengthAdjust="spacing" textLength="139" x="1488.5" y="455.7764">restorePauseState()</text></g><!--class SimulationRepository--><g id="elem_SimulationRepository"><rect codeLine="100" fill="#FFFFFF" height="178.375" id="SimulationRepository" rx="2.5" ry="2.5" style="stroke:#000000;stroke-width:0.5;" width="313" x="1070.5" y="41"/><ellipse cx="1150.25" cy="57" fill="#ADD1B2" rx="11" ry="11" style="stroke:#181818;stroke-width:1.0;"/><path d="M1153.2188,62.6406 Q1152.6406,62.9375 1152,63.0781 Q1151.3594,63.2344 1150.6563,63.2344 Q1148.1563,63.2344 1146.8281,61.5938 Q1145.5156,59.9375 1145.5156,56.8125 Q1145.5156,53.6875 1146.8281,52.0313 Q1148.1563,50.375 1150.6563,50.375 Q1151.3594,50.375 1152,50.5313 Q1152.6563,50.6875 1153.2188,50.9844 L1153.2188,53.7031 Q1152.5938,53.125 1152,52.8594 Q1151.4063,52.5781 1150.7813,52.5781 Q1149.4375,52.5781 1148.75,53.6563 Q1148.0625,54.7188 1148.0625,56.8125 Q1148.0625,58.9063 1148.75,59.9844 Q1149.4375,61.0469 1150.7813,61.0469 Q1151.4063,61.0469 1152,60.7813 Q1152.5938,60.5 1153.2188,59.9219 L1153.2188,62.6406 Z " fill="#000000"/><text fill="#000000" font-family="sans-serif" font-size="14" lengthAdjust="spacing" textLength="145" x="1170.75" y="61.8467">SimulationRepository</text><line style="stroke:#000000;stroke-width:0.5;" x1="1071.5" x2="1382.5" y1="73" y2="73"/><rect fill="none" height="6" style="stroke:#C82930;stroke-width:1.0;" width="6" x="1078.5" y="83.6484"/><text fill="#000000" font-family="sans-serif" font-size="14" lengthAdjust="spacing" textLength="287" x="1090.5" y="89.9951">connectionManager: ConnectionManager</text><rect fill="none" height="6" style="stroke:#C82930;stroke-width:1.0;" width="6" x="1078.5" y="99.9453"/><text fill="#000000" font-family="sans-serif" font-size="14" lengthAdjust="spacing" textLength="271" x="1090.5" y="106.292">stateManager: SimulationStateManager</text><rect fill="none" height="6" style="stroke:#C82930;stroke-width:1.0;" width="6" x="1078.5" y="116.2422"/><text fill="#000000" font-family="sans-serif" font-size="14" lengthAdjust="spacing" textLength="202" x="1090.5" y="122.5889">executor: SimulationExecutor</text><line style="stroke:#000000;stroke-width:0.5;" x1="1071.5" x2="1382.5" y1="129.8906" y2="129.8906"/><ellipse cx="1081.5" cy="143.5391" fill="#84BE84" rx="3" ry="3" style="stroke:#038048;stroke-width:1.0;"/><text fill="#000000" font-family="sans-serif" font-size="14" lengthAdjust="spacing" textLength="230" x="1090.5" y="146.8857">initialize(config: SimulationConfig)</text><ellipse cx="1081.5" cy="159.8359" fill="#84BE84" rx="3" ry="3" style="stroke:#038048;stroke-width:1.0;"/><text fill="#000000" font-family="sans-serif" font-size="14" lengthAdjust="spacing" textLength="41" x="1090.5" y="163.1826">start()</text><ellipse cx="1081.5" cy="176.1328" fill="#84BE84" rx="3" ry="3" style="stroke:#038048;stroke-width:1.0;"/><text fill="#000000" font-family="sans-serif" font-size="14" lengthAdjust="spacing" textLength="53" x="1090.5" y="179.4795">pause()</text><ellipse cx="1081.5" cy="192.4297" fill="#84BE84" rx="3" ry="3" style="stroke:#038048;stroke-width:1.0;"/><text fill="#000000" font-family="sans-serif" font-size="14" lengthAdjust="spacing" textLength="63" x="1090.5" y="195.7764">resume()</text><ellipse cx="1081.5" cy="208.7266" fill="#84BE84" rx="3" ry="3" style="stroke:#038048;stroke-width:1.0;"/><text fill="#000000" font-family="sans-serif" font-size="14" lengthAdjust="spacing" textLength="139" x="1090.5" y="212.0732">replay(products: int)</text></g><!--class ConnectionManager--><g id="elem_ConnectionManager"><rect codeLine="111" fill="#FFFFFF" height="145.7813" id="ConnectionManager" rx="2.5" ry="2.5" style="stroke:#000000;stroke-width:0.5;" width="309" x="1072.5" y="309"/><ellipse cx="1152.75" cy="325" fill="#ADD1B2" rx="11" ry="11" style="stroke:#181818;stroke-width:1.0;"/><path d="M1155.7188,330.6406 Q1155.1406,330.9375 1154.5,331.0781 Q1153.8594,331.2344 1153.1563,331.2344 Q1150.6563,331.2344 1149.3281,329.5938 Q1148.0156,327.9375 1148.0156,324.8125 Q1148.0156,321.6875 1149.3281,320.0313 Q1150.6563,318.375 1153.1563,318.375 Q1153.8594,318.375 1154.5,318.5313 Q1155.1563,318.6875 1155.7188,318.9844 L1155.7188,321.7031 Q1155.0938,321.125 1154.5,320.8594 Q1153.9063,320.5781 1153.2813,320.5781 Q1151.9375,320.5781 1151.25,321.6563 Q1150.5625,322.7188 1150.5625,324.8125 Q1150.5625,326.9063 1151.25,327.9844 Q1151.9375,329.0469 1153.2813,329.0469 Q1153.9063,329.0469 1154.5,328.7813 Q1155.0938,328.5 1155.7188,327.9219 L1155.7188,330.6406 Z " fill="#000000"/><text fill="#000000" font-family="sans-serif" font-size="14" lengthAdjust="spacing" textLength="140" x="1173.25" y="329.8467">ConnectionManager</text><line style="stroke:#000000;stroke-width:0.5;" x1="1073.5" x2="1380.5" y1="341" y2="341"/><rect fill="none" height="6" style="stroke:#C82930;stroke-width:1.0;" width="6" x="1080.5" y="351.6484"/><text fill="#000000" font-family="sans-serif" font-size="14" lengthAdjust="spacing" textLength="105" x="1092.5" y="357.9951">factory: Factory</text><rect fill="none" height="6" style="stroke:#C82930;stroke-width:1.0;" width="6" x="1080.5" y="367.9453"/><text fill="#000000" font-family="sans-serif" font-size="14" lengthAdjust="spacing" textLength="251" x="1092.5" y="374.292">machinesState: MachineStateHolder</text><rect fill="none" height="6" style="stroke:#C82930;stroke-width:1.0;" width="6" x="1080.5" y="384.2422"/><text fill="#000000" font-family="sans-serif" font-size="14" lengthAdjust="spacing" textLength="226" x="1092.5" y="390.5889">queuesState: QueueStateHolder</text><line style="stroke:#000000;stroke-width:0.5;" x1="1073.5" x2="1380.5" y1="397.8906" y2="397.8906"/><ellipse cx="1083.5" cy="411.5391" fill="#84BE84" rx="3" ry="3" style="stroke:#038048;stroke-width:1.0;"/><text fill="#000000" font-family="sans-serif" font-size="14" lengthAdjust="spacing" textLength="283" x="1092.5" y="414.8857">createMachines(machines: List&lt;String&gt;)</text><ellipse cx="1083.5" cy="427.8359" fill="#84BE84" rx="3" ry="3" style="stroke:#038048;stroke-width:1.0;"/><text fill="#000000" font-family="sans-serif" font-size="14" lengthAdjust="spacing" textLength="258" x="1092.5" y="431.1826">createQueues(queues: List&lt;String&gt;)</text><ellipse cx="1083.5" cy="444.1328" fill="#84BE84" rx="3" ry="3" style="stroke:#038048;stroke-width:1.0;"/><text fill="#000000" font-family="sans-serif" font-size="14" lengthAdjust="spacing" textLength="278" x="1092.5" y="447.4795">createConnections(edges: List&lt;Edge&gt;)</text></g><!--reverse link Publisher to Machine--><g id="link_Publisher_Machine"><path codeLine="122" d="M529.8334,656.0062 C577.9634,689.7162 629.09,725.51 686.27,765.55 " fill="none" id="Publisher-backto-Machine" style="stroke:#000000;stroke-width:1.0;stroke-dasharray:7.0,7.0;"/><polygon fill="none" points="515.09,645.68,526.3914,660.9207,533.2755,651.0917,515.09,645.68" style="stroke:#000000;stroke-width:1.0;"/></g><!--reverse link Publisher to Queue--><g id="link_Publisher_Queue"><path codeLine="123" d="M302.7085,653.9178 C258.2485,677.2978 229.2,701.98 204,747 C158.19,828.83 145.45,884.75 204,958 C260.46,1028.64 498.19,1066.34 662.82,1084.37 " fill="none" id="Publisher-backto-Queue" style="stroke:#000000;stroke-width:1.0;stroke-dasharray:7.0,7.0;"/><polygon fill="none" points="318.64,645.54,299.9159,648.6073,305.5011,659.2283,318.64,645.54" style="stroke:#000000;stroke-width:1.0;"/></g><!--reverse link WebSocketSubscriber to WebSocketService--><g id="link_WebSocketSubscriber_WebSocketService"><path codeLine="124" d="M184.2484,641.2326 C229.5384,682.6826 297.2,744.61 353.16,795.82 " fill="none" id="WebSocketSubscriber-backto-WebSocketService" style="stroke:#000000;stroke-width:1.0;stroke-dasharray:7.0,7.0;"/><polygon fill="none" points="170.97,629.08,180.1975,645.6587,188.2992,636.8064,170.97,629.08" style="stroke:#000000;stroke-width:1.0;"/></g><!--reverse link Cloneable to Machine--><g id="link_Cloneable_Machine"><path codeLine="125" d="M933.9375,644.4899 C916.1775,673.9099 897.81,704.35 872.19,746.8 " fill="none" id="Cloneable-backto-Machine" style="stroke:#000000;stroke-width:1.0;stroke-dasharray:7.0,7.0;"/><polygon fill="none" points="943.24,629.08,928.8009,641.389,939.0741,647.5907,943.24,629.08" style="stroke:#000000;stroke-width:1.0;"/></g><!--reverse link Cloneable to Queue--><g id="link_Cloneable_Queue"><path codeLine="126" d="M970.4502,647.0593 C980.6102,711.3393 994.19,844.06 949,958 C937.76,986.33 918.2,1012.79 897.93,1034.95 " fill="none" id="Cloneable-backto-Queue" style="stroke:#000000;stroke-width:1.0;stroke-dasharray:7.0,7.0;"/><polygon fill="none" points="967.64,629.28,964.5237,647.996,976.3766,646.1226,967.64,629.28" style="stroke:#000000;stroke-width:1.0;"/></g><!--reverse link Cloneable to Product--><g id="link_Cloneable_Product"><path codeLine="127" d="M974.7142,646.4654 C979.7742,666.5654 981.52,675.93 985,700 C999.78,802.16 1045.86,1068.37 1007,1164 C995.15,1193.15 973.47,1219.4 951.22,1240.69 " fill="none" id="Cloneable-backto-Product" style="stroke:#000000;stroke-width:1.0;stroke-dasharray:7.0,7.0;"/><polygon fill="none" points="970.32,629.01,968.8958,647.9301,980.5327,645.0006,970.32,629.01" style="stroke:#000000;stroke-width:1.0;"/></g><!--link SimulationStateManager to SimulationCaretaker--><g id="link_SimulationStateManager_SimulationCaretaker"><path codeLine="129" d="M1617.55,463.22 C1620.17,483.15 1622.1794,498.441 1624.7394,517.951 " fill="none" id="SimulationStateManager-to-SimulationCaretaker" style="stroke:#000000;stroke-width:1.0;"/><polygon fill="#000000" points="1625.52,523.9,1628.3151,514.4561,1624.8695,518.9425,1620.3831,515.4969,1625.52,523.9" style="stroke:#000000;stroke-width:1.0;"/></g><!--link SimulationCaretaker to SimulationMemento--><g id="link_SimulationCaretaker_SimulationMemento"><path codeLine="130" d="M1635,670.3 C1635,713.18 1635,760.32 1635,797.94 " fill="none" id="SimulationCaretaker-to-SimulationMemento" style="stroke:#000000;stroke-width:1.0;"/><polygon fill="#000000" points="1635,803.94,1639,794.94,1635,798.94,1631,794.94,1635,803.94" style="stroke:#000000;stroke-width:1.0;"/></g><!--link SimulationRepository to SimulationStateManager--><g id="link_SimulationRepository_SimulationStateManager"><path codeLine="131" d="M1360.97,219.14 C1401.47,245.78 1440.6776,271.5722 1480.3176,297.6522 " fill="none" id="SimulationRepository-to-SimulationStateManager" style="stroke:#000000;stroke-width:1.0;"/><polygon fill="#000000" points="1485.33,300.95,1480.0099,292.6617,1481.153,298.2018,1475.6128,299.3449,1485.33,300.95" style="stroke:#000000;stroke-width:1.0;"/></g><!--link SimulationRepository to ConnectionManager--><g id="link_SimulationRepository_ConnectionManager"><path codeLine="132" d="M1227,219.14 C1227,248.52 1227,274.89 1227,302.9 " fill="none" id="SimulationRepository-to-ConnectionManager" style="stroke:#000000;stroke-width:1.0;"/><polygon fill="#000000" points="1227,308.9,1231,299.9,1227,303.9,1223,299.9,1227,308.9" style="stroke:#000000;stroke-width:1.0;"/></g><!--link ConnectionManager to Factory--><g id="link_ConnectionManager_Factory"><path codeLine="133" d="M1227,455.11 C1227,485.89 1227,514.96 1227,542.41 " fill="none" id="ConnectionManager-to-Factory" style="stroke:#000000;stroke-width:1.0;"/><polygon fill="#000000" points="1227,548.41,1231,539.41,1227,543.41,1223,539.41,1227,548.41" style="stroke:#000000;stroke-width:1.0;"/></g><!--link Factory to Machine--><g id="link_Factory_Machine"><path codeLine="135" d="M1148.38,645.68 C1087.36,682.68 1006.7902,731.5486 936.7802,774.0086 " fill="none" id="Factory-to-Machine" style="stroke:#000000;stroke-width:1.0;stroke-dasharray:7.0,7.0;"/><polygon fill="#000000" points="931.65,777.12,941.4196,775.873,935.9252,774.5272,937.2711,769.0327,931.65,777.12" style="stroke:#000000;stroke-width:1.0;"/><text fill="#000000" font-family="sans-serif" font-size="13" lengthAdjust="spacing" textLength="48" x="1056" y="713.0669">creates</text></g><!--link Factory to Queue--><g id="link_Factory_Queue"><path codeLine="136" d="M1199.38,645.51 C1151.86,725.01 1048.88,887.8 937,1005 C927.34,1015.11 921.1378,1021.2464 910.3178,1030.8964 " fill="none" id="Factory-to-Queue" style="stroke:#000000;stroke-width:1.0;stroke-dasharray:7.0,7.0;"/><polygon fill="#000000" points="905.84,1034.89,915.2192,1031.8848,909.5715,1031.562,909.8943,1025.9143,905.84,1034.89" style="stroke:#000000;stroke-width:1.0;"/><text fill="#000000" font-family="sans-serif" font-size="13" lengthAdjust="spacing" textLength="48" x="1133" y="857.0669">creates</text></g><!--link Machine to Queue--><g id="link_Machine_Queue"><path codeLine="137" d="M816.26,958.11 C818.07,984.25 819.5441,1005.5244 821.1741,1028.9844 " fill="none" id="Machine-to-Queue" style="stroke:#000000;stroke-width:1.0;"/><polygon fill="#000000" points="821.59,1034.97,824.9566,1025.7144,821.2434,1029.982,816.9758,1026.2689,821.59,1034.97" style="stroke:#000000;stroke-width:1.0;"/><text fill="#000000" font-family="sans-serif" font-size="13" lengthAdjust="spacing" textLength="30" x="820" y="1001.0669">uses</text></g><!--link Queue to Product--><g id="link_Queue_Product"><path codeLine="138" d="M842.88,1164.14 C849.44,1188.84 855.3432,1211.0801 861.6732,1234.9701 " fill="none" id="Queue-to-Product" style="stroke:#000000;stroke-width:1.0;"/><polygon fill="#000000" points="863.21,1240.77,864.7714,1231.0457,861.9294,1235.9368,857.0383,1233.0947,863.21,1240.77" style="stroke:#000000;stroke-width:1.0;"/><text fill="#000000" font-family="sans-serif" font-size="13" lengthAdjust="spacing" textLength="54" x="856" y="1207.0669">contains</text></g><!--SRC=[jLRDRjim3BxxAOnUvc1h7i080gnPjnLOqQmzzApOZAF5aLn9RfTjVVVHacoBjjErX-KKKvyeaX__z9wBYYbsYBEIQHt_ZcByNR1iNoXPYtmbIwdY-nqtO4y-AYMVdF2YH9I3IvM32gNFKQGxpTg00ccE5Qo6Yh_nOcSkoXe2U8KOLi0az8jYnoZoYFZiPgD1FOAArypW8-BCsyy5VcrP1l6wtfHSxn3YJfhV-nZHBDibkjxeJF4Dg3I-XysTpFPWxZhXBBYHmrjl26duzjYVwSITOcYeYHDwYB5EKGAF84mQt_53NJB3fRXi14Idex3NXx7X-42lx3pMtVML54R9iYIkzCBWpW6qnd1_hw6650b691U5_LmCp5c-pMu7v8ARBZZF0RsVMMQaEWxPTMwsXw5tJmFNqr4mWcSp1Sp0DTBA1IGyHnkDGiTcQUo58x3rcKAjQCBsjPB6vlpft5oLKW3Rb43epXffWfflDZyWCsD-lN74yTwaK2YgsbZxT8hbeyt2VYm3YAnDYmbTSOTPhHHIXPxaTOOK-Zy1GjL2u9jfl96o12R24ilpg-xzv25u8QGU5IJXjpPCcSHhemUo8iWkJ25N94xsiNz7gN9UsH29FUHjVdy2D7hXVLvIpxmqgGQX8GPAeUk3DN4OkC3wC7q2s_sDVrkVDRrnGbw008KPUyj4BW-sWqw7BxIDPl0r791zELrzVJclcCBUk2TDwzmHwJM4nUz5OVnPhU4LICm1zWXtWTxaSFBMR71j7Jpooci5zepmiTdBnY6SF78IJdWUGKWG3owrTPFarS9n_C7dUrZ53xx60zIeqliqnmRqaY7eTDCL1UO0fJHhYKwds9ymsshg2jH-VPLbJh3ET8-qHa_X78bNE2SuAoqWcMHuVAG0EuUYL_jGN64lBkZOzXT6wcXjh10IHE5KRTn29JKVZIbi3G9RUyEwYtCQhuOYMaiT8-a9fW8u_8IiDf90BxriC7Kn9FmN96ZFbXU4LYiPT-PGOWjt66pRyOYeAjan8TatiRECt2VnshfHdxOp_p_d6baCTD9NePsXhi2Mi-dbG2SFuS0z2UuTrWdaHNVX4lylWunx5z-2eqJlUAMZVfzT_9dFk-4t4BkfChLOskFHKjHl8aJhGEoq3eJj_8XET93py-LakvWQ81JRDit9Sg9GKWadyUCQ6wTTWskpB6fNpFbysSOazVnfSkWNgFQetT0QPVu8IqL7RYDffDrEXQLd61Sw-Wi0]--></g></svg>